<svg data-v-423bf9ae="" xmlns="http://www.w3.org/2000/svg" viewBox="0 0 436 90" class="iconLeft"><!----><!----><!----><g data-v-423bf9ae="" id="b2a99166-775d-43b7-a533-6d59781497de" fill="black" transform="matrix(4.344677637719095,0,0,4.344677637719095,146.141810261573,14.826213400005848)"><path d="M2.98 10.64C4.68 10.64 5.77 9.84 5.77 8.61C5.77 7.53 4.98 7.08 4.02 6.62C3.32 6.29 2.20 5.96 2.20 5.42C2.20 5.00 2.66 4.69 3.22 4.69C3.56 4.69 3.93 4.75 4.27 4.83L4.56 5.91L5.52 5.74L5.52 4.40C4.91 4.03 4.13 3.81 3.36 3.81C1.68 3.81 0.59 4.44 0.59 5.63C0.59 6.85 1.85 7.43 2.77 7.87C3.40 8.16 4.16 8.55 4.16 9.00C4.16 9.52 3.56 9.76 2.87 9.76C2.69 9.76 2.20 9.70 1.97 9.62L1.50 8.23L0.56 8.41L0.56 10.07C1.36 10.46 2.37 10.64 2.98 10.64ZM9.24 9.34L9.24 5.11C9.62 4.96 10.25 4.83 10.72 4.83C11.24 4.83 11.69 5.11 11.69 5.84L11.69 9.34L10.79 9.65L10.96 10.50L14.17 10.50L14.34 9.65L13.45 9.34L13.45 6.03C13.45 4.51 12.40 3.81 10.82 3.81C10.37 3.81 9.63 3.99 9.24 4.17L9.24 0.25L8.41 0.04L6.54 0.25L6.71 1.05L7.48 1.05L7.48 9.34L6.61 9.65L6.78 10.50L9.95 10.50L10.12 9.65ZM17.28 6.38C17.40 5.38 17.99 4.69 18.90 4.69C19.63 4.69 20.19 5.15 20.19 5.98C20.19 6.10 20.17 6.24 20.15 6.38ZM19.21 9.63C18.00 9.63 17.26 8.65 17.23 7.25L21.64 7.25C21.81 6.96 21.95 6.45 21.95 6.08C21.95 4.70 20.58 3.81 18.90 3.81C16.90 3.81 15.32 5.08 15.32 7.22C15.32 9.30 16.48 10.65 19.14 10.65C20.06 10.65 20.94 10.43 21.84 9.70L21.36 8.99C20.65 9.46 19.92 9.63 19.21 9.63ZM25.75 10.50L26.04 10.50C28.21 10.50 29.92 9.11 29.92 7.04C29.92 4.89 28.71 3.81 26.73 3.81C26.11 3.81 25.38 4.05 24.95 4.24L24.35 3.81L22.47 3.96L22.64 4.82L23.41 4.82L23.41 12.68L22.53 12.99L22.69 13.85L25.89 13.85L26.05 12.99L25.16 12.68L25.16 5.10C25.63 4.91 26.15 4.82 26.61 4.82C27.40 4.82 28 5.32 28 6.94C28 8.62 26.92 9.65 26.01 9.65L25.75 9.65ZM33.39 9.34L33.39 5.11C33.77 4.96 34.40 4.83 34.87 4.83C35.39 4.83 35.84 5.11 35.84 5.84L35.84 9.34L34.94 9.65L35.11 10.50L38.32 10.50L38.49 9.65L37.60 9.34L37.60 6.03C37.60 4.51 36.55 3.81 34.97 3.81C34.52 3.81 33.78 3.99 33.39 4.17L33.39 0.25L32.56 0.04L30.69 0.25L30.86 1.05L31.63 1.05L31.63 9.34L30.76 9.65L30.93 10.50L34.10 10.50L34.27 9.65ZM41.43 6.38C41.55 5.38 42.14 4.69 43.05 4.69C43.78 4.69 44.34 5.15 44.34 5.98C44.34 6.10 44.32 6.24 44.30 6.38ZM43.36 9.63C42.15 9.63 41.41 8.65 41.38 7.25L45.79 7.25C45.96 6.96 46.10 6.45 46.10 6.08C46.10 4.70 44.73 3.81 43.05 3.81C41.05 3.81 39.47 5.08 39.47 7.22C39.47 9.30 40.63 10.65 43.29 10.65C44.21 10.65 45.09 10.43 45.99 9.70L45.51 8.99C44.80 9.46 44.07 9.63 43.36 9.63ZM52.81 5.74L52.81 4.12C52.28 3.91 51.80 3.81 51.37 3.81C50.72 3.81 49.99 4.02 49.56 4.17L48.99 3.81L47.17 3.96L47.33 4.82L47.96 4.82L47.96 9.34L47.08 9.65L47.25 10.50L50.72 10.50L50.89 9.65L49.73 9.34L49.73 5.10C50.13 4.94 50.71 4.82 50.99 4.82C51.18 4.82 51.45 4.84 51.55 4.87L51.87 5.91ZM58.20 9.20C57.89 9.51 57.41 9.63 56.99 9.63C56.04 9.63 55.34 8.61 55.34 7.14C55.34 5.68 55.97 4.82 57.06 4.82C57.41 4.82 57.90 4.93 58.20 5.10ZM58.80 10.50L60.70 10.50L60.87 9.65L59.96 9.34L59.96 0.25L59.14 0.04L57.29 0.25L57.44 1.05L58.20 1.05L58.20 3.99C57.83 3.88 57.34 3.81 56.98 3.81C54.89 3.81 53.44 5.21 53.44 7.28C53.44 9.35 54.66 10.65 56.91 10.65C57.46 10.65 58.07 10.43 58.38 10.18ZM63.92 10.64C65.62 10.64 66.71 9.84 66.71 8.61C66.71 7.53 65.93 7.08 64.96 6.62C64.26 6.29 63.14 5.96 63.14 5.42C63.14 5.00 63.60 4.69 64.16 4.69C64.50 4.69 64.88 4.75 65.21 4.83L65.51 5.91L66.46 5.74L66.46 4.40C65.86 4.03 65.07 3.81 64.30 3.81C62.62 3.81 61.53 4.44 61.53 5.63C61.53 6.85 62.79 7.43 63.71 7.87C64.34 8.16 65.10 8.55 65.10 9.00C65.10 9.52 64.50 9.76 63.81 9.76C63.63 9.76 63.14 9.70 62.92 9.62L62.44 8.23L61.50 8.41L61.50 10.07C62.30 10.46 63.31 10.64 63.92 10.64Z"></path></g><!----><g data-v-423bf9ae="" id="00cb7c9a-1d0a-468d-b8fb-3c8065d4fcc7" transform="matrix(1.8556701030927836,0,0,1.8556701030927836,-28.427944527458905,-47.03350515463917)" stroke="none" fill="black"><path d="M23.053 74.25h9.97V63.92a.5.5 0 01.5-.5h8.83a.5.5 0 01.5.5v10.33h9.97V57.545h-29.77zM44.79 61.295h5.75v9h-5.75zm-19.455 0h5.75v9h-5.75zM23.053 55.67h29.77v.875h-29.77z"></path><path d="M38.433 64.42h3.42v9.83h-3.42zM38.965 34.256a1.5 1.5 0 00-2.063 0L20.813 49.5H55.06zM56.115 50.5H19.758l-4.401 4.17H60.517l-4.402-4.17zM34.023 64.42h3.41v9.83h-3.41z"></path><path d="M75.143 25.75h-33.33v9.825l5.125 4.855h7.845l.012.003h14.767a.5.5 0 01.5.5v5.704a.5.5 0 01-.5.5H54.797l-.014.003h-.76l8.093 7.667a.5.5 0 01-.343.863h-7.95v4.44h7.95a.5.5 0 01.5.5v13.64h6.54V50a.5.5 0 01.5-.5h5.83zM51.386 35.805l-2.035-1.647-2.036 1.647.938-2.445-2.196-1.427 2.615.136.679-2.529.678 2.53 2.615-.137-2.195 1.427zm9.127 0l-2.035-1.647-2.036 1.647.938-2.445-2.196-1.427 2.615.136.679-2.529.678 2.53 2.615-.137-2.195 1.427zm8.19-2.445l.937 2.445-2.035-1.647-2.036 1.647.938-2.445-2.196-1.427 2.615.136.679-2.529.679 2.53 2.615-.137zM82.313 55.874V53.09h-1v2.143a5.04 5.04 0 01.797.475c.071.051.134.11.203.166zM76.585 53.09h-1v2.787c.073-.06.133-.123.214-.179a4.962 4.962 0 01.786-.467z"></path><path d="M53.823 61.11h2.929v13.002h-2.929zM83.848 50.5H69.813v23.75h1.33V52.59a.5.5 0 01.5-.5h12.205a.795.795 0 100-1.59zM57.752 61.11h3.521v13.002h-3.521z"></path><path d="M81.063 72.23a3.126 3.126 0 00-2.104.82.494.494 0 01-.417.123.5.5 0 01-.356-.25 3.763 3.763 0 00-2.779-1.898.5.5 0 01-.35-.773 3.062 3.062 0 00.516-1.702 3.129 3.129 0 00-3.12-3.13q-.157 0-.31.015v8.815h11.86a3.128 3.128 0 00-2.94-2.02zM75.979 63.25a4.369 4.369 0 105.541-6.735 4.337 4.337 0 00-5.14-.003 2.653 2.653 0 00-.384.322 4.345 4.345 0 00-.017 6.415z"></path></g><!----></svg>